<?xml version="1.0" encoding="UTF-8"?>
<svg width="158px" height="60px" viewBox="0 0 158 60" preserveAspectRatio="none"   version="1.1" xmlns="http://www.w3.org/2000/svg" xmlns:xlink="http://www.w3.org/1999/xlink">
    <!-- Generator: Sketch 63 (92445) - https://sketch.com -->
    <title>编组 29</title>
    <desc>Created with Sketch.</desc>
    <g id="移动官网" stroke="none" stroke-width="1" fill="none" fill-rule="evenodd" fill-opacity="0.589297421">
        <g id="图表备份" transform="translate(-1880.000000, -6371.000000)" fill="#000C2D" stroke="#FA4B50" stroke-width="2">
            <g id="编组-29" transform="translate(1880.000000, 6370.000000)">
                <path d="M50.0662274,2.19522614 L42.6082198,12.3231311 L10,12.3231311 C7.51471863,12.3231311 5.26471863,13.3304905 3.63603897,14.9591701 C2.00735931,16.5878498 1,18.8378498 1,21.3231311 L1,51 C1,53.4852814 2.00735931,55.7352814 3.63603897,57.363961 C5.26471863,58.9926407 7.51471863,60 10,60 L148,60 C150.485281,60 152.735281,58.9926407 154.363961,57.363961 C155.992641,55.7352814 157,53.4852814 157,51 L157,21.3231311 C157,18.8378498 155.992641,16.5878498 154.363961,14.9591701 C152.735281,13.3304905 150.485281,12.3231311 148,12.3231311 L59.4688062,12.3231311 C58.8747517,12.3231311 58.3114401,12.0590472 57.9314585,11.602413 L50.0662274,2.19522614 Z" id="矩形"></path>
            </g>
        </g>
    </g>
</svg>